<svg xmlns="http://www.w3.org/2000/svg" width="1500" height="238" fill="none"><path fill="#fff" d="M84.171 214H20.845v-21.111H84.17zm21.109-21.111H84.171v-63.333h21.109zm-84.435 0H0v-21.111h20.845zM84.17 45.111H20.845V24H84.17zm21.109 21.111H84.171v-21.11h21.109zm-84.435 42.222H0V45.111h20.845zm63.326 21.112H20.845v-21.112H84.17zM152.775 24v84.444h21.109v21.112h-21.109v84.18H131.93V24zm63.326 84.444h-42.217v-21.11h42.217zM237.21 214h-21.109V108.444h21.109zM348.031 108.444h-63.326V87.069h63.326zm-63.326 84.445H263.86v-42.486h20.845zm63.326-84.445h21.109v105.292h-84.435v-20.847h63.326v-42.486h-63.326v-20.847h63.326zM416.635 129.556h21.109v21.111h-21.109v63.069H395.79V24h20.845zm42.217 0h-21.108v-21.112h21.108zm21.109-21.112h-21.109v-21.11h21.109zm-21.109 63.334h-21.108v-21.111h21.108zm21.109 21.111h-21.109v-21.111h21.109zM501.07 214h-21.109v-21.111h21.109zM611.891 214h-63.326v-21.111h63.326zM633 192.889h-21.109v-21.111H633zm-21.109-84.445h-63.326v-21.11h63.326zM633 150.667h-84.435v42.222H527.72v-84.445h20.845v21.112h63.326v-21.112H633z"/><path fill="#FF0087" d="M659 0h841v238H659z"/><path fill="#fff" d="M686 87.738h41.859V109h-21.061v104.738H686zM838.369 109h-63.184V87.737h63.184zm-63.184 84h-20.798v-42.262h20.798zm63.184-84h21.061v104.738h-84.245V193h63.184v-42.262h-63.184V130h63.184zM906.817 193H886.02v-84h20.797zm63.184-168h21.061v188.738h-84.245V193h63.184v-84h-63.184V87.737h63.184zM1038.45 213.738h-20.8v-126h20.8zm0-167.738h-20.8V25h20.8zM1148.94 214h-63.18v-21h63.18zm-63.18-21h-20.8v-84h20.8zm63.18-84h-63.18V88h63.18zm21.06 84h-21.06v-84H1170z"/></svg>